<svg width="22" height="21" viewBox="0 0 22 21" fill="none" xmlns="http://www.w3.org/2000/svg">
<path d="M19.4375 0.375H2.5625C2.11495 0.375 1.68572 0.55279 1.36926 0.869257C1.05279 1.18572 0.875 1.61495 0.875 2.0625V18.9375C0.875 19.3851 1.05279 19.8143 1.36926 20.1307C1.68572 20.4472 2.11495 20.625 2.5625 20.625H19.4375C19.8851 20.625 20.3143 20.4472 20.6307 20.1307C20.9472 19.8143 21.125 19.3851 21.125 18.9375V2.0625C21.125 1.61495 20.9472 1.18572 20.6307 0.869257C20.3143 0.55279 19.8851 0.375 19.4375 0.375ZM2.5625 18.9375V2.0625H19.4375V18.9375H2.5625Z" fill="black"/>
</svg>
